# xmcd CD database file
#
# Track frame offsets:
#	150
#	39592
#	82462
#	136455
#	166253
#	205371
#	228699
#
# Disc length: 3377 seconds
#
# Revision: 0
# Processed by: cddbd v1.5.2PL0 Copyright (c) Steve Scherf et al.
# Submitted via: CDex 1.51
#
DISCID=650d2f07
DTITLE=Fee Stracke - Vertreibung aus dem Paradies
DYEAR=2009
DGENRE=Jazz
TTITLE0=seriöse granaten
TTITLE1=lied vom sich drehenden wind
TTITLE2=vertreibung aus dem paradies
TTITLE3=in großen und kleinen zügen
TTITLE4=bis der arzt kommt
TTITLE5=ameisenstraße 11
TTITLE6=unterwasserkarussel
EXTD=YEAR: 2009
EXTT0=
EXTT1=
EXTT2=
EXTT3=
EXTT4=
EXTT5=
EXTT6=
PLAYORDER=
